<svg width="150" height="119" viewBox="0 0 150 119" fill="none" xmlns="http://www.w3.org/2000/svg">
<path d="M141.562 0C145.748 0 149.141 3.39294 149.141 7.57834V47.5397C149.141 52.1177 145.429 55.8289 140.851 55.8289V55.8289C138.122 55.8289 135.568 54.4856 134.022 52.2369L116.383 26.5898C116.343 26.5317 116.277 26.4969 116.207 26.4969V26.4969C116.088 26.4969 115.992 26.5929 115.992 26.7113V48.2506C115.992 52.436 112.599 55.8289 108.414 55.8289V55.8289C104.229 55.8289 100.836 52.436 100.836 48.2506V8.41139C100.836 3.7659 104.601 0 109.247 0V0C112.034 0 114.64 1.38034 116.205 3.68585L133.463 29.098C133.516 29.1762 133.604 29.223 133.699 29.223V29.223C133.856 29.223 133.984 29.0953 133.984 28.9378V7.57834C133.984 3.39294 137.377 0 141.562 0V0Z" fill="white"/>
<path d="M63.0825 55.8289C57.5596 55.8289 53.0825 51.3518 53.0825 45.8289V9.99999C53.0825 4.47715 57.5596 0 63.0825 0H87.2123C90.5847 0 93.3185 2.73388 93.3185 6.10629V6.10629C93.3185 9.4787 90.5847 12.2126 87.2123 12.2126H73.0369C70.3872 12.2126 68.2391 14.3606 68.2391 17.0104V17.0104C68.2391 19.6601 70.3872 21.8082 73.0369 21.8082H85.1405C88.5129 21.8082 91.2468 24.5421 91.2468 27.9145V27.9145C91.2468 31.2869 88.5129 34.0208 85.1405 34.0208H73.0369C70.3872 34.0208 68.2391 36.1688 68.2391 38.8186V38.8186C68.2391 41.4683 70.3872 43.6164 73.0369 43.6164H87.1032C90.4756 43.6164 93.2095 46.3502 93.2095 49.7226V49.7226C93.2095 53.0951 90.4756 55.8289 87.1032 55.8289H63.0825Z" fill="white"/>
<path d="M6.29841 55.8289C2.81989 55.8289 0 53.009 0 49.5305V49.5305C0 48.1688 0.441318 46.8438 1.25781 45.754L15.8855 26.2303C20.2142 20.4527 16.0916 12.2126 8.87228 12.2126H6.21533C2.84292 12.2126 0.109041 9.4787 0.109041 6.10629V6.10629C0.109041 2.73388 2.84292 0 6.21533 0H39.3897C42.8682 0 45.6881 2.81989 45.6881 6.29841V6.29841C45.6881 7.66013 45.2468 8.98518 44.4303 10.075L29.8027 29.5987C25.4739 35.3762 29.5966 43.6164 36.8159 43.6164H39.4728C42.8452 43.6164 45.5791 46.3502 45.5791 49.7226V49.7226C45.5791 53.0951 42.8452 55.8289 39.4728 55.8289H6.29841Z" fill="white"/>
<path d="M0.181732 69.5002C0.181732 66.366 2.72251 63.8252 5.85672 63.8252H39.9066C43.0408 63.8252 45.5816 66.366 45.5816 69.5002V69.5002C45.5816 72.6344 43.0408 75.1752 39.9066 75.1752H5.85671C2.72251 75.1752 0.181732 72.6344 0.181732 69.5002V69.5002Z" fill="white"/>
<path d="M0.181732 113.008C0.181732 109.874 2.72251 107.333 5.85672 107.333H39.9066C43.0408 107.333 45.5816 109.874 45.5816 113.008V113.008C45.5816 116.143 43.0408 118.683 39.9066 118.683H5.85671C2.72251 118.683 0.181732 116.143 0.181732 113.008V113.008Z" fill="white"/>
<path d="M22.8817 114.269C19.051 114.269 15.9456 111.164 15.9456 107.333L15.9456 75.8056C15.9456 71.9749 19.051 68.8695 22.8817 68.8695V68.8695C26.7124 68.8695 29.8178 71.9749 29.8178 75.8056L29.8178 107.333C29.8178 111.164 26.7124 114.269 22.8817 114.269V114.269Z" fill="white"/>
<path d="M52.9575 69.5897C52.9575 66.4061 55.5384 63.8252 58.722 63.8252H87.1747C90.3583 63.8252 92.9392 66.4061 92.9392 69.5897V69.5897C92.9392 72.7734 90.3583 75.3542 87.1747 75.3542H58.722C55.5384 75.3542 52.9575 72.7734 52.9575 69.5897V69.5897Z" fill="white"/>
<path d="M72.5485 119C68.7947 119 65.7516 115.957 65.7516 112.203L65.7516 75.5631C65.7516 71.8093 68.7947 68.7662 72.5485 68.7662V68.7662C76.3023 68.7662 79.3454 71.8093 79.3454 75.5631L79.3454 112.203C79.3454 115.957 76.3023 119 72.5485 119V119Z" fill="white"/>
<path d="M102.535 91.1798C102.535 87.9961 105.116 85.4153 108.299 85.4153H136.752C139.936 85.4153 142.516 87.9961 142.516 91.1798V91.1798C142.516 94.3635 139.936 96.9443 136.752 96.9443H108.299C105.116 96.9443 102.535 94.3635 102.535 91.1798V91.1798Z" fill="white"/>
<path d="M108.532 119C104.337 119 100.936 115.599 100.936 111.403L100.936 71.4217C100.936 67.2263 104.337 63.8252 108.532 63.8252V63.8252C112.727 63.8252 116.129 67.2263 116.129 71.4217L116.129 111.403C116.129 115.599 112.727 119 108.532 119V119Z" fill="white"/>
<path d="M142.117 119C137.921 119 134.52 115.599 134.52 111.403L134.52 71.4217C134.52 67.2263 137.921 63.8252 142.117 63.8252V63.8252C146.312 63.8252 149.713 67.2263 149.713 71.4217V111.403C149.713 115.599 146.312 119 142.117 119V119Z" fill="white"/>
</svg>
