<svg width="207" height="124" viewBox="0 0 207 124" fill="none" xmlns="http://www.w3.org/2000/svg">
<path d="M48.9422 32.632H87.9012V35.7136H52.5134V58.907H85.7909V61.9886H52.5134V87.4527H88.307V90.5343H48.9422V32.632ZM91.3912 32.632H95.5306L113.874 58.0961L132.623 32.632L158.124 0.286804L116.228 60.7722L137.817 90.5343H133.516L113.874 63.4484L94.1508 90.5343H89.9303L111.682 60.7722L91.3912 32.632ZM139.359 35.7136V32.632H183.756V35.7136H163.303V90.5343H159.732V35.7136H139.359Z" fill="white" fill-opacity="0.503874"/>
<path d="M0.202927 32.632H4.66697L66.2236 124.303L40.7852 90.5343L3.93649 37.0112L3.77416 90.5343H0.202927V32.632Z" fill="white" fill-opacity="0.503874"/>
<path d="M183.397 86.5227C184.135 86.5227 184.673 85.9601 184.673 85.233C184.673 84.506 184.135 83.9433 183.397 83.9433C182.667 83.9433 182.12 84.506 182.12 85.233C182.12 85.9601 182.667 86.5227 183.397 86.5227ZM186.906 83.1297C186.906 85.2763 188.461 86.6785 190.728 86.6785C193.142 86.6785 194.602 85.233 194.602 82.7229V73.8855H192.656V82.7142C192.656 84.1078 191.952 84.8522 190.71 84.8522C189.598 84.8522 188.843 84.1597 188.817 83.1297H186.906ZM197.147 83.0172C197.286 85.2503 199.153 86.6785 201.933 86.6785C204.903 86.6785 206.762 85.1811 206.762 82.7921C206.762 80.9139 205.702 79.8752 203.131 79.278L201.75 78.9404C200.117 78.5596 199.457 78.0489 199.457 77.1573C199.457 76.0321 200.482 75.2964 202.02 75.2964C203.479 75.2964 204.486 76.0148 204.669 77.166H206.562C206.449 75.0627 204.591 73.5826 202.046 73.5826C199.309 73.5826 197.485 75.0627 197.485 77.2872C197.485 79.1222 198.519 80.2128 200.786 80.7408L202.402 81.1303C204.061 81.5198 204.79 82.091 204.79 83.0432C204.79 84.1511 203.644 84.956 202.08 84.956C200.404 84.956 199.24 84.203 199.075 83.0172H197.147Z" fill="#343434"/>
</svg>
